<mxfile host="app.diagrams.net" modified="2023-07-15T03:56:01.633Z" agent="Mozilla/5.0 (Macintosh; Intel Mac OS X 10_15_7) AppleWebKit/537.36 (KHTML, like Gecko) Chrome/114.0.0.0 Safari/537.36" etag="vNGpWOSk8_QmbjTvvdPu" version="21.6.2" type="github">
  <diagram name="Page-1" id="74e2e168-ea6b-b213-b513-2b3c1d86103e">
    <mxGraphModel dx="2506" dy="624" grid="1" gridSize="10" guides="1" tooltips="1" connect="1" arrows="1" fold="1" page="1" pageScale="1" pageWidth="1100" pageHeight="850" background="none" math="0" shadow="0">
      <root>
        <mxCell id="0" />
        <mxCell id="1" parent="0" />
        <mxCell id="77e6c97f196da883-1" value="iOS push notification" style="swimlane;html=1;childLayout=stackLayout;startSize=20;rounded=0;shadow=0;labelBackgroundColor=none;strokeWidth=1;fontFamily=Verdana;fontSize=8;align=center;" parent="1" vertex="1">
          <mxGeometry x="-310" y="30" width="960" height="750" as="geometry" />
        </mxCell>
        <mxCell id="77e6c97f196da883-2" value="App" style="swimlane;html=1;startSize=20;" parent="77e6c97f196da883-1" vertex="1">
          <mxGeometry y="20" width="340" height="730" as="geometry" />
        </mxCell>
        <mxCell id="77e6c97f196da883-8" value="device" style="rounded=1;whiteSpace=wrap;html=1;shadow=0;labelBackgroundColor=none;strokeWidth=1;fontFamily=Verdana;fontSize=8;align=center;" parent="77e6c97f196da883-2" vertex="1">
          <mxGeometry x="10" y="270" width="70" height="210" as="geometry" />
        </mxCell>
        <mxCell id="kcH6FKTG4FAqnX9JVjOC-5" value="entitlement" style="rhombus;whiteSpace=wrap;html=1;" vertex="1" parent="77e6c97f196da883-2">
          <mxGeometry x="120" y="170" width="80" height="60" as="geometry" />
        </mxCell>
        <mxCell id="kcH6FKTG4FAqnX9JVjOC-17" value="" style="endArrow=classic;html=1;rounded=0;exitX=1;exitY=0.5;exitDx=0;exitDy=0;entryX=0.5;entryY=1;entryDx=0;entryDy=0;" edge="1" parent="77e6c97f196da883-2" source="77e6c97f196da883-8" target="kcH6FKTG4FAqnX9JVjOC-5">
          <mxGeometry relative="1" as="geometry">
            <mxPoint x="140" y="360" as="sourcePoint" />
            <mxPoint x="300" y="360" as="targetPoint" />
            <Array as="points">
              <mxPoint x="80" y="290" />
              <mxPoint x="160" y="290" />
            </Array>
          </mxGeometry>
        </mxCell>
        <mxCell id="kcH6FKTG4FAqnX9JVjOC-21" value="capatilibites" style="rhombus;whiteSpace=wrap;html=1;" vertex="1" parent="77e6c97f196da883-2">
          <mxGeometry x="120" y="60" width="80" height="60" as="geometry" />
        </mxCell>
        <mxCell id="kcH6FKTG4FAqnX9JVjOC-27" value="" style="endArrow=classic;html=1;rounded=0;exitX=0.5;exitY=0;exitDx=0;exitDy=0;entryX=0.5;entryY=1;entryDx=0;entryDy=0;" edge="1" parent="77e6c97f196da883-2" source="kcH6FKTG4FAqnX9JVjOC-5" target="kcH6FKTG4FAqnX9JVjOC-21">
          <mxGeometry relative="1" as="geometry">
            <mxPoint x="400" y="110" as="sourcePoint" />
            <mxPoint x="560" y="110" as="targetPoint" />
          </mxGeometry>
        </mxCell>
        <mxCell id="kcH6FKTG4FAqnX9JVjOC-28" value="Y" style="edgeLabel;resizable=0;html=1;align=center;verticalAlign=middle;" connectable="0" vertex="1" parent="kcH6FKTG4FAqnX9JVjOC-27">
          <mxGeometry relative="1" as="geometry" />
        </mxCell>
        <mxCell id="kcH6FKTG4FAqnX9JVjOC-100" value="Login" style="rhombus;whiteSpace=wrap;html=1;" vertex="1" parent="77e6c97f196da883-2">
          <mxGeometry x="120" y="325" width="80" height="80" as="geometry" />
        </mxCell>
        <mxCell id="kcH6FKTG4FAqnX9JVjOC-102" value="Bind" style="rhombus;whiteSpace=wrap;html=1;" vertex="1" parent="77e6c97f196da883-2">
          <mxGeometry x="235" y="325" width="80" height="80" as="geometry" />
        </mxCell>
        <mxCell id="kcH6FKTG4FAqnX9JVjOC-110" value="HTTPS" style="rhombus;whiteSpace=wrap;html=1;" vertex="1" parent="77e6c97f196da883-2">
          <mxGeometry x="240" y="60" width="70" height="60" as="geometry" />
        </mxCell>
        <mxCell id="kcH6FKTG4FAqnX9JVjOC-111" value="" style="endArrow=classic;html=1;rounded=0;exitX=1;exitY=0.5;exitDx=0;exitDy=0;entryX=0;entryY=0.5;entryDx=0;entryDy=0;" edge="1" parent="77e6c97f196da883-2" source="kcH6FKTG4FAqnX9JVjOC-21" target="kcH6FKTG4FAqnX9JVjOC-110">
          <mxGeometry relative="1" as="geometry">
            <mxPoint x="350" y="160" as="sourcePoint" />
            <mxPoint x="450" y="160" as="targetPoint" />
            <Array as="points">
              <mxPoint x="210" y="90" />
            </Array>
          </mxGeometry>
        </mxCell>
        <mxCell id="kcH6FKTG4FAqnX9JVjOC-112" value="Y" style="edgeLabel;resizable=0;html=1;align=center;verticalAlign=middle;" connectable="0" vertex="1" parent="kcH6FKTG4FAqnX9JVjOC-111">
          <mxGeometry relative="1" as="geometry" />
        </mxCell>
        <mxCell id="kcH6FKTG4FAqnX9JVjOC-118" value="" style="endArrow=classic;html=1;rounded=0;exitX=1;exitY=0.5;exitDx=0;exitDy=0;entryX=0;entryY=0.5;entryDx=0;entryDy=0;" edge="1" parent="77e6c97f196da883-2" source="kcH6FKTG4FAqnX9JVjOC-100" target="kcH6FKTG4FAqnX9JVjOC-102">
          <mxGeometry relative="1" as="geometry">
            <mxPoint x="170" y="440" as="sourcePoint" />
            <mxPoint x="270" y="440" as="targetPoint" />
            <Array as="points" />
          </mxGeometry>
        </mxCell>
        <mxCell id="kcH6FKTG4FAqnX9JVjOC-119" value="Y" style="edgeLabel;resizable=0;html=1;align=center;verticalAlign=middle;" connectable="0" vertex="1" parent="kcH6FKTG4FAqnX9JVjOC-118">
          <mxGeometry relative="1" as="geometry" />
        </mxCell>
        <mxCell id="kcH6FKTG4FAqnX9JVjOC-132" value="Push&lt;br&gt;Auth" style="rhombus;whiteSpace=wrap;html=1;" vertex="1" parent="77e6c97f196da883-2">
          <mxGeometry x="180" y="415" width="80" height="80" as="geometry" />
        </mxCell>
        <mxCell id="kcH6FKTG4FAqnX9JVjOC-135" value="" style="endArrow=classic;html=1;rounded=0;exitX=0;exitY=0.5;exitDx=0;exitDy=0;entryX=1.057;entryY=0.881;entryDx=0;entryDy=0;entryPerimeter=0;" edge="1" parent="77e6c97f196da883-2" source="kcH6FKTG4FAqnX9JVjOC-132" target="77e6c97f196da883-8">
          <mxGeometry relative="1" as="geometry">
            <mxPoint x="340" y="270" as="sourcePoint" />
            <mxPoint x="440" y="270" as="targetPoint" />
          </mxGeometry>
        </mxCell>
        <mxCell id="kcH6FKTG4FAqnX9JVjOC-136" value="Y" style="edgeLabel;resizable=0;html=1;align=center;verticalAlign=middle;" connectable="0" vertex="1" parent="kcH6FKTG4FAqnX9JVjOC-135">
          <mxGeometry relative="1" as="geometry">
            <mxPoint x="18" as="offset" />
          </mxGeometry>
        </mxCell>
        <mxCell id="kcH6FKTG4FAqnX9JVjOC-151" value="" style="endArrow=classic;html=1;rounded=0;entryX=0;entryY=0.5;entryDx=0;entryDy=0;" edge="1" parent="77e6c97f196da883-2" target="kcH6FKTG4FAqnX9JVjOC-100">
          <mxGeometry relative="1" as="geometry">
            <mxPoint x="80" y="365" as="sourcePoint" />
            <mxPoint x="210" y="550" as="targetPoint" />
          </mxGeometry>
        </mxCell>
        <mxCell id="kcH6FKTG4FAqnX9JVjOC-152" value="Y" style="edgeLabel;resizable=0;html=1;align=center;verticalAlign=middle;" connectable="0" vertex="1" parent="kcH6FKTG4FAqnX9JVjOC-151">
          <mxGeometry relative="1" as="geometry" />
        </mxCell>
        <mxCell id="77e6c97f196da883-3" value="APNs" style="swimlane;html=1;startSize=20;" parent="77e6c97f196da883-1" vertex="1">
          <mxGeometry x="340" y="20" width="320" height="730" as="geometry">
            <mxRectangle x="340" y="20" width="40" height="730" as="alternateBounds" />
          </mxGeometry>
        </mxCell>
        <mxCell id="77e6c97f196da883-11" value="device&lt;br&gt;token" style="rounded=1;whiteSpace=wrap;html=1;shadow=0;labelBackgroundColor=none;strokeWidth=1;fontFamily=Verdana;fontSize=8;align=center;" parent="77e6c97f196da883-3" vertex="1">
          <mxGeometry x="50" y="50" width="70" height="60" as="geometry" />
        </mxCell>
        <mxCell id="kcH6FKTG4FAqnX9JVjOC-81" value="push service" style="rounded=1;whiteSpace=wrap;html=1;" vertex="1" parent="77e6c97f196da883-3">
          <mxGeometry x="180" y="420" width="100" height="70" as="geometry" />
        </mxCell>
        <mxCell id="kcH6FKTG4FAqnX9JVjOC-138" value="HTTPS" style="rhombus;whiteSpace=wrap;html=1;" vertex="1" parent="77e6c97f196da883-3">
          <mxGeometry x="50" y="415" width="80" height="80" as="geometry" />
        </mxCell>
        <mxCell id="kcH6FKTG4FAqnX9JVjOC-139" value="" style="endArrow=classic;html=1;rounded=0;exitX=0;exitY=0.5;exitDx=0;exitDy=0;entryX=1;entryY=0.5;entryDx=0;entryDy=0;" edge="1" parent="77e6c97f196da883-3" source="kcH6FKTG4FAqnX9JVjOC-81" target="kcH6FKTG4FAqnX9JVjOC-138">
          <mxGeometry width="50" height="50" relative="1" as="geometry">
            <mxPoint x="90" y="600" as="sourcePoint" />
            <mxPoint x="140" y="550" as="targetPoint" />
          </mxGeometry>
        </mxCell>
        <mxCell id="kcH6FKTG4FAqnX9JVjOC-3" value="backend service" style="swimlane;html=1;startSize=20;" vertex="1" parent="77e6c97f196da883-1">
          <mxGeometry x="660" y="20" width="300" height="730" as="geometry">
            <mxRectangle x="340" y="20" width="40" height="730" as="alternateBounds" />
          </mxGeometry>
        </mxCell>
        <mxCell id="kcH6FKTG4FAqnX9JVjOC-53" value="" style="rounded=0;whiteSpace=wrap;html=1;" vertex="1" parent="kcH6FKTG4FAqnX9JVjOC-3">
          <mxGeometry x="20" y="280" width="240" height="130" as="geometry" />
        </mxCell>
        <mxCell id="kcH6FKTG4FAqnX9JVjOC-66" style="edgeStyle=elbowEdgeStyle;rounded=0;orthogonalLoop=1;jettySize=auto;html=1;startArrow=none;endArrow=none;exitX=1;exitY=0.5;exitDx=0;exitDy=0;" edge="1" parent="kcH6FKTG4FAqnX9JVjOC-3" source="kcH6FKTG4FAqnX9JVjOC-58" target="kcH6FKTG4FAqnX9JVjOC-53">
          <mxGeometry relative="1" as="geometry" />
        </mxCell>
        <mxCell id="kcH6FKTG4FAqnX9JVjOC-58" value="cer" style="whiteSpace=wrap;html=1;align=center;verticalAlign=middle;treeFolding=1;treeMoving=1;newEdgeStyle={&quot;edgeStyle&quot;:&quot;elbowEdgeStyle&quot;,&quot;startArrow&quot;:&quot;none&quot;,&quot;endArrow&quot;:&quot;none&quot;};" vertex="1" parent="kcH6FKTG4FAqnX9JVjOC-3">
          <mxGeometry x="30" y="290" width="50" height="110" as="geometry" />
        </mxCell>
        <mxCell id="kcH6FKTG4FAqnX9JVjOC-77" value="device&lt;br&gt;token" style="whiteSpace=wrap;html=1;align=center;verticalAlign=middle;treeFolding=1;treeMoving=1;newEdgeStyle={&quot;edgeStyle&quot;:&quot;elbowEdgeStyle&quot;,&quot;startArrow&quot;:&quot;none&quot;,&quot;endArrow&quot;:&quot;none&quot;};" vertex="1" parent="kcH6FKTG4FAqnX9JVjOC-3">
          <mxGeometry x="140" y="290" width="50" height="110" as="geometry" />
        </mxCell>
        <mxCell id="kcH6FKTG4FAqnX9JVjOC-75" value="private&lt;br&gt;key" style="whiteSpace=wrap;html=1;align=center;verticalAlign=middle;treeFolding=1;treeMoving=1;newEdgeStyle={&quot;edgeStyle&quot;:&quot;elbowEdgeStyle&quot;,&quot;startArrow&quot;:&quot;none&quot;,&quot;endArrow&quot;:&quot;none&quot;};" vertex="1" parent="kcH6FKTG4FAqnX9JVjOC-3">
          <mxGeometry x="80" y="290" width="50" height="110" as="geometry" />
        </mxCell>
        <mxCell id="kcH6FKTG4FAqnX9JVjOC-80" value="memId" style="whiteSpace=wrap;html=1;align=center;verticalAlign=middle;treeFolding=1;treeMoving=1;newEdgeStyle={&quot;edgeStyle&quot;:&quot;elbowEdgeStyle&quot;,&quot;startArrow&quot;:&quot;none&quot;,&quot;endArrow&quot;:&quot;none&quot;};" vertex="1" parent="kcH6FKTG4FAqnX9JVjOC-3">
          <mxGeometry x="200" y="290" width="50" height="110" as="geometry" />
        </mxCell>
        <mxCell id="kcH6FKTG4FAqnX9JVjOC-88" value="" style="endArrow=classic;html=1;rounded=0;exitX=0.667;exitY=1.031;exitDx=0;exitDy=0;entryX=1;entryY=0.5;entryDx=0;entryDy=0;exitPerimeter=0;" edge="1" parent="kcH6FKTG4FAqnX9JVjOC-3" source="kcH6FKTG4FAqnX9JVjOC-53">
          <mxGeometry relative="1" as="geometry">
            <mxPoint x="70" y="450" as="sourcePoint" />
            <mxPoint x="120" y="455" as="targetPoint" />
            <Array as="points">
              <mxPoint x="180" y="455" />
            </Array>
          </mxGeometry>
        </mxCell>
        <mxCell id="kcH6FKTG4FAqnX9JVjOC-137" value="Post" style="rhombus;whiteSpace=wrap;html=1;" vertex="1" parent="kcH6FKTG4FAqnX9JVjOC-3">
          <mxGeometry x="40" y="415" width="80" height="80" as="geometry" />
        </mxCell>
        <mxCell id="kcH6FKTG4FAqnX9JVjOC-116" value="" style="endArrow=classic;html=1;rounded=0;exitX=1;exitY=0.5;exitDx=0;exitDy=0;entryX=-0.014;entryY=0.65;entryDx=0;entryDy=0;entryPerimeter=0;" edge="1" parent="77e6c97f196da883-1" source="kcH6FKTG4FAqnX9JVjOC-110" target="77e6c97f196da883-11">
          <mxGeometry relative="1" as="geometry">
            <mxPoint x="350" y="180" as="sourcePoint" />
            <mxPoint x="450" y="180" as="targetPoint" />
          </mxGeometry>
        </mxCell>
        <mxCell id="kcH6FKTG4FAqnX9JVjOC-117" value="Y" style="edgeLabel;resizable=0;html=1;align=center;verticalAlign=middle;" connectable="0" vertex="1" parent="kcH6FKTG4FAqnX9JVjOC-116">
          <mxGeometry relative="1" as="geometry">
            <mxPoint x="-24" y="1" as="offset" />
          </mxGeometry>
        </mxCell>
        <mxCell id="kcH6FKTG4FAqnX9JVjOC-127" value="&lt;br&gt;" style="endArrow=classic;html=1;rounded=0;exitX=1;exitY=0.5;exitDx=0;exitDy=0;entryX=0.004;entryY=0.677;entryDx=0;entryDy=0;entryPerimeter=0;" edge="1" parent="77e6c97f196da883-1" source="kcH6FKTG4FAqnX9JVjOC-102" target="kcH6FKTG4FAqnX9JVjOC-53">
          <mxGeometry relative="1" as="geometry">
            <mxPoint x="160" y="500" as="sourcePoint" />
            <mxPoint x="610" y="390" as="targetPoint" />
          </mxGeometry>
        </mxCell>
        <mxCell id="kcH6FKTG4FAqnX9JVjOC-128" value="Y" style="edgeLabel;resizable=0;html=1;align=center;verticalAlign=middle;" connectable="0" vertex="1" parent="kcH6FKTG4FAqnX9JVjOC-127">
          <mxGeometry relative="1" as="geometry">
            <mxPoint x="-168" y="-2" as="offset" />
          </mxGeometry>
        </mxCell>
        <mxCell id="kcH6FKTG4FAqnX9JVjOC-94" value="" style="endArrow=classic;html=1;rounded=0;entryX=1;entryY=0.5;entryDx=0;entryDy=0;exitX=0;exitY=0.5;exitDx=0;exitDy=0;" edge="1" parent="77e6c97f196da883-1" target="kcH6FKTG4FAqnX9JVjOC-81">
          <mxGeometry relative="1" as="geometry">
            <mxPoint x="700" y="475" as="sourcePoint" />
            <mxPoint x="530" y="560" as="targetPoint" />
            <Array as="points" />
          </mxGeometry>
        </mxCell>
        <mxCell id="kcH6FKTG4FAqnX9JVjOC-142" value="" style="endArrow=classic;html=1;rounded=0;exitX=0;exitY=0.5;exitDx=0;exitDy=0;entryX=1;entryY=0.5;entryDx=0;entryDy=0;" edge="1" parent="77e6c97f196da883-1" source="kcH6FKTG4FAqnX9JVjOC-138" target="kcH6FKTG4FAqnX9JVjOC-132">
          <mxGeometry relative="1" as="geometry">
            <mxPoint x="180" y="570" as="sourcePoint" />
            <mxPoint x="280" y="570" as="targetPoint" />
          </mxGeometry>
        </mxCell>
        <mxCell id="kcH6FKTG4FAqnX9JVjOC-143" value="Y" style="edgeLabel;resizable=0;html=1;align=center;verticalAlign=middle;" connectable="0" vertex="1" parent="kcH6FKTG4FAqnX9JVjOC-142">
          <mxGeometry relative="1" as="geometry">
            <mxPoint x="45" as="offset" />
          </mxGeometry>
        </mxCell>
      </root>
    </mxGraphModel>
  </diagram>
</mxfile>
